<svg width="150" height="131" viewBox="0 0 150 131" fill="none" xmlns="http://www.w3.org/2000/svg">
<g clip-path="url(#clip0_19906_300)">
<path d="M135.246 67.9934C135.265 84.1602 129.016 99.7049 117.813 111.36C117.137 112.067 116.444 112.757 115.732 113.43C114.647 114.462 113.526 115.454 112.369 116.406C101.541 125.327 88.0228 130.34 73.9963 130.636C73.529 130.647 73.0599 130.652 72.589 130.652C61.4025 130.652 47.3326 124.677 34.5642 116.406C33.5079 115.721 32.4609 115.021 31.4233 114.305C30.9383 113.974 30.4557 113.637 29.9754 113.296C25.0508 109.819 20.3764 106 15.9866 101.868C13.1124 99.171 10.4172 96.2891 7.91817 93.2409C-1.89268 81.1392 -4.05661 70.2349 9.93042 67.9934C11.5864 67.7288 13.1937 67.4461 14.7521 67.1451C17.0095 66.7112 19.1699 66.2427 21.2333 65.7395C24.0127 65.064 26.624 64.3316 29.0671 63.5421C29.889 63.2775 30.692 63.0077 31.4762 62.7326C43.07 58.6604 50.8298 53.3503 56.1118 47.5886C57.0077 46.6134 57.8336 45.6263 58.5896 44.6276C59.7463 43.1073 60.7969 41.5092 61.7341 39.8447C63.0276 37.5319 64.1141 35.1093 64.9809 32.6052L65.0285 32.4676C69.2311 20.3447 67.9525 9.10005 72.589 5.33655C92.4082 -10.7527 117.083 12.1599 128.664 39.1798C129.248 40.5413 129.797 41.911 130.311 43.289C130.542 43.9045 130.765 44.5212 130.98 45.139C131.544 46.7491 132.056 48.3634 132.516 49.9818C132.692 50.5991 132.86 51.2157 133.02 51.8318C133.191 52.4967 133.355 53.1598 133.507 53.8229C134.634 58.6781 135.246 63.4662 135.246 67.9934Z" fill="#D9E6F6"/>
<path d="M73.9964 130.636C73.5291 130.647 73.0599 130.652 72.589 130.652C61.4026 130.652 47.3327 124.677 34.5643 116.406C33.5079 115.721 32.4609 115.021 31.4233 114.305L32.3334 108.768L59.8824 105.11L73.7089 115.683L73.9964 130.636Z" fill="#2F2E41"/>
<path d="M75.3227 31.7534H71.397C71.2754 31.7534 71.1588 31.8017 71.0728 31.8877C70.9868 31.9737 70.9385 32.0903 70.9385 32.2119V36.1394C70.9385 36.1995 70.9504 36.259 70.9735 36.3145C70.9966 36.37 71.0304 36.4204 71.073 36.4628C71.1156 36.5053 71.1661 36.5389 71.2217 36.5618C71.2773 36.5846 71.3369 36.5963 71.397 36.5962H75.3227C75.4441 36.5962 75.5605 36.5481 75.6464 36.4625C75.7324 36.3769 75.7809 36.2607 75.7813 36.1394V32.2119C75.7809 32.0904 75.7325 31.9739 75.6466 31.888C75.5607 31.8021 75.4442 31.7537 75.3227 31.7534Z" fill="white"/>
<path d="M75.3227 38.4462H71.397C71.2754 38.4462 71.1588 38.4945 71.0728 38.5805C70.9868 38.6665 70.9385 38.7831 70.9385 38.9047V42.8322C70.9385 42.8923 70.9504 42.9518 70.9735 43.0073C70.9966 43.0628 71.0304 43.1132 71.073 43.1557C71.1156 43.1981 71.1661 43.2317 71.2217 43.2546C71.2773 43.2774 71.3369 43.2891 71.397 43.289H75.3227C75.4441 43.289 75.5605 43.241 75.6464 43.1553C75.7324 43.0697 75.7809 42.9535 75.7813 42.8322V38.9047C75.7809 38.7832 75.7325 38.6668 75.6466 38.5809C75.5607 38.4949 75.4442 38.4465 75.3227 38.4462Z" fill="#E6E6E6"/>
<path d="M75.3227 45.139H71.397C71.2754 45.139 71.1588 45.1874 71.0728 45.2734C70.9868 45.3593 70.9385 45.4759 70.9385 45.5975V49.5233C70.9384 49.5835 70.9501 49.6432 70.9731 49.6989C70.9961 49.7546 71.0299 49.8052 71.0725 49.8478C71.1151 49.8904 71.1657 49.9241 71.2214 49.9471C71.2771 49.9701 71.3367 49.9819 71.397 49.9818H75.3227C75.4443 49.9817 75.5609 49.9334 75.6469 49.8474C75.7329 49.7615 75.7812 49.6449 75.7813 49.5233V45.5975C75.7809 45.476 75.7325 45.3596 75.6466 45.2737C75.5607 45.1878 75.4442 45.1393 75.3227 45.139Z" fill="#E6E6E6"/>
<path d="M75.7742 52.2092C75.7547 52.1036 75.6989 52.0081 75.6164 51.9392C75.534 51.8703 75.4302 51.8323 75.3227 51.8318H71.397C71.2754 51.8319 71.1588 51.8802 71.0728 51.9662C70.9869 52.0521 70.9385 52.1687 70.9385 52.2903V56.2161C70.9384 56.2763 70.9501 56.336 70.9731 56.3917C70.9961 56.4474 71.0299 56.498 71.0725 56.5406C71.1151 56.5832 71.1657 56.6169 71.2214 56.6399C71.2771 56.6629 71.3367 56.6747 71.397 56.6746H75.3227C75.4443 56.6745 75.5609 56.6262 75.6469 56.5402C75.7329 56.4543 75.7812 56.3377 75.7813 56.2161V52.2903C75.7817 52.2631 75.7793 52.236 75.7742 52.2092Z" fill="#E6E6E6"/>
<path d="M75.5009 58.5599C75.4444 58.5366 75.3838 58.5246 75.3227 58.5247H71.397C71.3367 58.5245 71.2771 58.5363 71.2214 58.5593C71.1657 58.5823 71.1151 58.6161 71.0725 58.6587C71.0299 58.7013 70.9961 58.7519 70.9731 58.8076C70.9501 58.8633 70.9384 58.9229 70.9385 58.9832V62.9089C70.9382 62.9692 70.9499 63.029 70.9728 63.0847C70.9958 63.1405 71.0295 63.1911 71.0722 63.2338C71.1148 63.2764 71.1654 63.3102 71.2212 63.3331C71.2769 63.3561 71.3367 63.3678 71.397 63.3675H75.3227C75.4443 63.3674 75.5609 63.3191 75.6469 63.2331C75.7329 63.1471 75.7812 63.0305 75.7813 62.9089V58.9832C75.7811 58.8929 75.7544 58.8047 75.7045 58.7295C75.6547 58.6543 75.5839 58.5953 75.5009 58.5599Z" fill="#E6E6E6"/>
<path d="M83.5693 31.7534H79.6436C79.522 31.7534 79.4054 31.8017 79.3194 31.8877C79.2334 31.9737 79.1851 32.0903 79.1851 32.2119V36.1394C79.1851 36.1995 79.197 36.259 79.2201 36.3145C79.2432 36.37 79.277 36.4204 79.3196 36.4628C79.3622 36.5053 79.4127 36.5389 79.4683 36.5618C79.5239 36.5846 79.5835 36.5963 79.6436 36.5962H83.5693C83.6906 36.5962 83.807 36.5481 83.893 36.4625C83.9789 36.3769 84.0274 36.2607 84.0279 36.1394V32.2119C84.0275 32.0904 83.9791 31.9739 83.8932 31.888C83.8073 31.8021 83.6908 31.7537 83.5693 31.7534Z" fill="#E6E6E6"/>
<path d="M83.5693 38.4462H79.6436C79.522 38.4462 79.4054 38.4945 79.3194 38.5805C79.2334 38.6665 79.1851 38.7831 79.1851 38.9047V42.8322C79.1851 42.8923 79.197 42.9518 79.2201 43.0073C79.2432 43.0628 79.277 43.1132 79.3196 43.1557C79.3622 43.1981 79.4127 43.2317 79.4683 43.2546C79.5239 43.2774 79.5835 43.2891 79.6436 43.289H83.5693C83.6906 43.289 83.807 43.241 83.893 43.1553C83.979 43.0697 84.0274 42.9535 84.0279 42.8322V38.9047C84.0275 38.7832 83.9791 38.6668 83.8932 38.5809C83.8072 38.4949 83.6908 38.4465 83.5693 38.4462Z" fill="#ED2590"/>
<path d="M83.5693 45.139H79.6436C79.522 45.139 79.4054 45.1874 79.3194 45.2734C79.2334 45.3593 79.1851 45.4759 79.1851 45.5975V49.5233C79.1849 49.5835 79.1967 49.6432 79.2197 49.6989C79.2427 49.7546 79.2765 49.8052 79.3191 49.8478C79.3617 49.8904 79.4123 49.9241 79.468 49.9471C79.5236 49.9701 79.5833 49.9819 79.6436 49.9818H83.5693C83.6909 49.9817 83.8075 49.9334 83.8935 49.8474C83.9795 49.7615 84.0278 49.6449 84.0279 49.5233V45.5975C84.0275 45.476 83.9791 45.3596 83.8932 45.2737C83.8073 45.1878 83.6908 45.1393 83.5693 45.139Z" fill="#ED2590"/>
<path d="M83.5693 51.8318H79.6436C79.5474 51.8319 79.4538 51.8622 79.3759 51.9186C79.298 51.9749 79.2399 52.0544 79.2097 52.1457C79.1934 52.1922 79.1851 52.2411 79.1851 52.2903V56.2161C79.1849 56.2763 79.1967 56.336 79.2197 56.3917C79.2427 56.4474 79.2765 56.498 79.3191 56.5406C79.3617 56.5832 79.4123 56.617 79.468 56.64C79.5236 56.663 79.5833 56.6747 79.6436 56.6746H83.5693C83.6909 56.6746 83.8075 56.6262 83.8935 56.5403C83.9795 56.4543 84.0278 56.3377 84.0279 56.2161V52.2903C84.0275 52.1688 83.9791 52.0524 83.8932 51.9665C83.8072 51.8806 83.6908 51.8321 83.5693 51.8318Z" fill="#ED2590"/>
<path d="M83.5693 58.5247H79.6436C79.5833 58.5245 79.5236 58.5363 79.468 58.5593C79.4123 58.5823 79.3617 58.6161 79.3191 58.6587C79.2765 58.7013 79.2427 58.7519 79.2197 58.8076C79.1967 58.8633 79.1849 58.9229 79.1851 58.9832V62.9089C79.1849 62.9692 79.1967 63.0289 79.2197 63.0846C79.2427 63.1402 79.2765 63.1908 79.3191 63.2335C79.3617 63.2761 79.4123 63.3098 79.468 63.3328C79.5236 63.3558 79.5833 63.3676 79.6436 63.3675H83.5693C83.6909 63.3674 83.8075 63.3191 83.8935 63.2331C83.9795 63.1471 84.0278 63.0305 84.0279 62.9089V58.9832C84.0278 58.8616 83.9795 58.745 83.8935 58.659C83.8075 58.573 83.6909 58.5247 83.5693 58.5247Z" fill="#E6E6E6"/>
<path d="M91.8158 31.7534H87.8901C87.7686 31.7534 87.652 31.8017 87.566 31.8877C87.48 31.9737 87.4317 32.0903 87.4316 32.2119V36.1394C87.4317 36.1995 87.4436 36.259 87.4667 36.3145C87.4898 36.37 87.5236 36.4204 87.5662 36.4628C87.6088 36.5053 87.6593 36.5389 87.7149 36.5618C87.7705 36.5846 87.83 36.5963 87.8901 36.5962H91.8158C91.9372 36.5962 92.0536 36.5481 92.1395 36.4625C92.2255 36.3769 92.274 36.2607 92.2744 36.1394V32.2119C92.274 32.0904 92.2256 31.9739 92.1397 31.888C92.0538 31.8021 91.9373 31.7537 91.8158 31.7534Z" fill="#ED2590"/>
<path d="M91.8158 38.4462H87.8901C87.7686 38.4462 87.652 38.4945 87.566 38.5805C87.48 38.6665 87.4317 38.7831 87.4316 38.9047V42.8322C87.4317 42.8923 87.4436 42.9518 87.4667 43.0073C87.4898 43.0628 87.5236 43.1132 87.5662 43.1557C87.6088 43.1981 87.6593 43.2317 87.7149 43.2546C87.7705 43.2774 87.83 43.2891 87.8901 43.289H91.8158C91.9372 43.289 92.0536 43.241 92.1395 43.1553C92.2255 43.0697 92.274 42.9535 92.2744 42.8322V38.9047C92.274 38.7832 92.2256 38.6668 92.1397 38.5809C92.0538 38.4949 91.9373 38.4465 91.8158 38.4462Z" fill="#ED2590"/>
<path d="M91.8159 45.139H87.8901C87.7686 45.139 87.652 45.1874 87.566 45.2734C87.48 45.3593 87.4317 45.4759 87.4316 45.5975V49.5233C87.4315 49.5835 87.4433 49.6432 87.4663 49.6989C87.4893 49.7546 87.5231 49.8052 87.5657 49.8478C87.6083 49.8904 87.6589 49.9241 87.7145 49.9471C87.7702 49.9701 87.8299 49.9819 87.8901 49.9818H91.8159C91.9374 49.9817 92.054 49.9334 92.14 49.8474C92.226 49.7615 92.2743 49.6449 92.2744 49.5233V45.5975C92.274 45.476 92.2256 45.3596 92.1397 45.2737C92.0538 45.1878 91.9374 45.1393 91.8159 45.139Z" fill="#E6E6E6"/>
<path d="M91.8159 51.8318H87.8901C87.7686 51.8319 87.652 51.8802 87.566 51.9662C87.48 52.0521 87.4317 52.1687 87.4316 52.2903V56.2161C87.4315 56.2763 87.4433 56.336 87.4663 56.3917C87.4893 56.4474 87.5231 56.498 87.5657 56.5406C87.6083 56.5832 87.6589 56.6169 87.7145 56.6399C87.7702 56.6629 87.8299 56.6747 87.8901 56.6746H91.8159C91.9374 56.6745 92.0541 56.6262 92.14 56.5402C92.226 56.4543 92.2743 56.3377 92.2744 56.2161V52.2903C92.274 52.1688 92.2256 52.0524 92.1397 51.9665C92.0538 51.8806 91.9374 51.8321 91.8159 51.8318Z" fill="#ED2590"/>
<path d="M91.8159 58.5247H87.8901C87.8299 58.5245 87.7702 58.5363 87.7145 58.5593C87.6589 58.5823 87.6083 58.6161 87.5657 58.6587C87.5231 58.7013 87.4893 58.7519 87.4663 58.8076C87.4433 58.8633 87.4315 58.9229 87.4316 58.9832V62.9089C87.4315 62.9692 87.4433 63.0289 87.4663 63.0846C87.4893 63.1402 87.5231 63.1908 87.5657 63.2335C87.6083 63.2761 87.6589 63.3098 87.7145 63.3328C87.7702 63.3558 87.8299 63.3676 87.8901 63.3675H91.8159C91.9374 63.3674 92.0541 63.3191 92.14 63.2331C92.226 63.1471 92.2743 63.0305 92.2744 62.9089V58.9832C92.2743 58.8616 92.226 58.745 92.14 58.659C92.0541 58.573 91.9374 58.5247 91.8159 58.5247Z" fill="#ED2590"/>
<path d="M100.062 31.7534H96.1363C96.0147 31.7534 95.8981 31.8017 95.8121 31.8877C95.7261 31.9737 95.6778 32.0903 95.6777 32.2119V36.1394C95.6778 36.1995 95.6897 36.259 95.7128 36.3145C95.7359 36.37 95.7697 36.4204 95.8123 36.4628C95.8549 36.5053 95.9054 36.5389 95.961 36.5618C96.0166 36.5846 96.0761 36.5963 96.1363 36.5962H100.062C100.183 36.5962 100.3 36.5481 100.386 36.4625C100.472 36.3769 100.52 36.2607 100.521 36.1394V32.2119C100.52 32.0904 100.472 31.9739 100.386 31.888C100.3 31.8021 100.184 31.7537 100.062 31.7534Z" fill="#ED2590"/>
<path d="M100.062 38.4462H96.1363C96.0147 38.4462 95.8981 38.4945 95.8121 38.5805C95.7261 38.6665 95.6778 38.7831 95.6777 38.9047V42.8322C95.6778 42.8923 95.6897 42.9518 95.7128 43.0073C95.7359 43.0628 95.7697 43.1132 95.8123 43.1557C95.8549 43.1981 95.9054 43.2317 95.961 43.2546C96.0166 43.2774 96.0761 43.2891 96.1363 43.289H100.062C100.183 43.289 100.3 43.241 100.386 43.1553C100.472 43.0697 100.52 42.9535 100.521 42.8322V38.9047C100.52 38.7832 100.472 38.6668 100.386 38.5809C100.3 38.4949 100.184 38.4465 100.062 38.4462Z" fill="white"/>
<path d="M100.062 45.139H96.1363C96.0147 45.139 95.8981 45.1874 95.8121 45.2734C95.7261 45.3593 95.6778 45.4759 95.6777 45.5975V49.5233C95.6776 49.5835 95.6894 49.6432 95.7124 49.6989C95.7354 49.7546 95.7692 49.8052 95.8118 49.8478C95.8544 49.8904 95.905 49.9241 95.9606 49.9471C96.0163 49.9701 96.076 49.9819 96.1363 49.9818H100.062C100.184 49.9817 100.3 49.9334 100.386 49.8474C100.472 49.7615 100.521 49.6449 100.521 49.5233V45.5975C100.52 45.476 100.472 45.3596 100.386 45.2737C100.3 45.1878 100.184 45.1393 100.062 45.139Z" fill="white"/>
<path d="M100.062 51.8318H96.1363C96.0147 51.8318 95.8981 51.8802 95.8121 51.9662C95.7261 52.0521 95.6778 52.1687 95.6777 52.2903V56.2161C95.6776 56.2763 95.6894 56.336 95.7124 56.3917C95.7354 56.4474 95.7692 56.498 95.8118 56.5406C95.8544 56.5832 95.905 56.6169 95.9606 56.6399C96.0163 56.6629 96.076 56.6747 96.1363 56.6746H100.062C100.184 56.6745 100.3 56.6262 100.386 56.5402C100.472 56.4543 100.521 56.3377 100.521 56.2161V52.2903C100.52 52.1688 100.472 52.0524 100.386 51.9665C100.3 51.8806 100.184 51.8321 100.062 51.8318Z" fill="#E6E6E6"/>
<path d="M100.062 58.5247H96.1363C96.076 58.5245 96.0163 58.5363 95.9606 58.5593C95.905 58.5823 95.8544 58.6161 95.8118 58.6587C95.7692 58.7013 95.7354 58.7519 95.7124 58.8076C95.6894 58.8633 95.6776 58.9229 95.6777 58.9832V62.9089C95.6776 62.9692 95.6894 63.0289 95.7124 63.0846C95.7354 63.1402 95.7692 63.1908 95.8118 63.2335C95.8544 63.2761 95.905 63.3098 95.9606 63.3328C96.0163 63.3558 96.076 63.3676 96.1363 63.3675H100.062C100.184 63.3674 100.3 63.3191 100.386 63.2331C100.472 63.1471 100.521 63.0305 100.521 62.9089V58.9832C100.521 58.8616 100.472 58.745 100.386 58.659C100.3 58.573 100.184 58.5247 100.062 58.5247Z" fill="#ED2590"/>
<path d="M108.309 31.7534H104.381C104.26 31.7538 104.144 31.8023 104.058 31.8882C103.972 31.9742 103.924 32.0905 103.924 32.2119V36.1394C103.924 36.2605 103.972 36.3767 104.058 36.4624C104.144 36.548 104.26 36.5961 104.381 36.5962H108.309C108.43 36.5962 108.546 36.5482 108.632 36.4625C108.718 36.3769 108.767 36.2607 108.767 36.1394V32.2119C108.767 32.0904 108.718 31.9739 108.632 31.888C108.547 31.8021 108.43 31.7537 108.309 31.7534Z" fill="white"/>
<path d="M108.309 38.4462H104.381C104.26 38.4466 104.144 38.4951 104.058 38.581C103.972 38.667 103.924 38.7834 103.924 38.9047V42.8322C103.924 42.9533 103.972 43.0695 104.058 43.1552C104.144 43.2408 104.26 43.2889 104.381 43.289H108.309C108.43 43.289 108.546 43.241 108.632 43.1553C108.718 43.0697 108.767 42.9535 108.767 42.8322V38.9047C108.767 38.7832 108.718 38.6668 108.632 38.5809C108.547 38.4949 108.43 38.4465 108.309 38.4462Z" fill="white"/>
<path d="M108.309 45.139H104.381C104.26 45.1394 104.144 45.1879 104.058 45.2739C103.972 45.3598 103.924 45.4762 103.924 45.5975V49.5233C103.924 49.5834 103.936 49.6429 103.959 49.6985C103.982 49.7541 104.015 49.8047 104.058 49.8472C104.1 49.8898 104.15 49.9236 104.206 49.9467C104.261 49.9698 104.321 49.9817 104.381 49.9818H108.309C108.43 49.9817 108.547 49.9334 108.633 49.8474C108.719 49.7615 108.767 49.6449 108.767 49.5233V45.5975C108.767 45.476 108.718 45.3596 108.632 45.2737C108.547 45.1878 108.43 45.1393 108.309 45.139Z" fill="white"/>
<path d="M108.309 51.8318H104.381C104.26 51.8322 104.144 51.8807 104.058 51.9667C103.972 52.0526 103.924 52.169 103.924 52.2903V56.2161C103.924 56.2762 103.936 56.3358 103.959 56.3914C103.982 56.4469 104.015 56.4975 104.058 56.5401C104.1 56.5827 104.15 56.6165 104.206 56.6396C104.261 56.6626 104.321 56.6746 104.381 56.6746H108.309C108.43 56.6746 108.547 56.6262 108.633 56.5403C108.719 56.4543 108.767 56.3377 108.767 56.2161V52.2903C108.767 52.1688 108.718 52.0524 108.632 51.9665C108.547 51.8806 108.43 51.8321 108.309 51.8318Z" fill="#ED2590"/>
<path d="M108.309 58.5247H104.381C104.321 58.5247 104.261 58.5366 104.206 58.5597C104.15 58.5828 104.1 58.6166 104.058 58.6592C104.015 58.7018 103.982 58.7523 103.959 58.8079C103.936 58.8635 103.924 58.9231 103.924 58.9832V62.9089C103.924 62.9691 103.936 63.0286 103.959 63.0842C103.982 63.1398 104.015 63.1903 104.058 63.2329C104.1 63.2755 104.15 63.3093 104.206 63.3324C104.261 63.3555 104.321 63.3674 104.381 63.3675H108.309C108.43 63.3674 108.547 63.3191 108.633 63.2331C108.719 63.1471 108.767 63.0305 108.767 62.9089V58.9832C108.767 58.8616 108.719 58.745 108.633 58.659C108.547 58.573 108.43 58.5247 108.309 58.5247Z" fill="#E6E6E6"/>
<path d="M116.555 31.7534H112.628C112.506 31.7538 112.39 31.8023 112.305 31.8882C112.219 31.9742 112.171 32.0905 112.171 32.2119V36.1394C112.171 36.2605 112.219 36.3767 112.305 36.4624C112.39 36.548 112.507 36.5961 112.628 36.5962H116.555C116.677 36.5962 116.793 36.5482 116.879 36.4625C116.965 36.3769 117.013 36.2607 117.014 36.1394V32.2119C117.013 32.0904 116.965 31.9739 116.879 31.888C116.793 31.8021 116.677 31.7537 116.555 31.7534Z" fill="white"/>
<path d="M116.555 38.4462H112.628C112.506 38.4466 112.39 38.4951 112.305 38.581C112.219 38.667 112.171 38.7834 112.171 38.9047V42.8322C112.171 42.9533 112.219 43.0695 112.305 43.1552C112.39 43.2408 112.507 43.2889 112.628 43.289H116.555C116.677 43.289 116.793 43.241 116.879 43.1553C116.965 43.0697 117.013 42.9535 117.014 42.8322V38.9047C117.013 38.7832 116.965 38.6668 116.879 38.5809C116.793 38.4949 116.677 38.4465 116.555 38.4462Z" fill="white"/>
<path d="M116.555 45.139H112.628C112.506 45.1394 112.39 45.1879 112.305 45.2739C112.219 45.3598 112.171 45.4762 112.171 45.5975V49.5233C112.171 49.5834 112.182 49.6429 112.205 49.6985C112.228 49.7541 112.262 49.8047 112.304 49.8472C112.347 49.8898 112.397 49.9236 112.453 49.9467C112.508 49.9698 112.568 49.9817 112.628 49.9818H116.555C116.677 49.9817 116.793 49.9334 116.879 49.8474C116.965 49.7615 117.014 49.6449 117.014 49.5233V45.5975C117.013 45.476 116.965 45.3596 116.879 45.2737C116.793 45.1878 116.677 45.1393 116.555 45.139Z" fill="#ED2590"/>
<path d="M116.555 51.8318H112.628C112.506 51.8322 112.39 51.8807 112.305 51.9667C112.219 52.0526 112.171 52.169 112.171 52.2903V56.2161C112.171 56.2762 112.182 56.3358 112.205 56.3914C112.228 56.4469 112.262 56.4975 112.304 56.5401C112.347 56.5827 112.397 56.6165 112.453 56.6396C112.508 56.6626 112.568 56.6746 112.628 56.6746H116.555C116.677 56.6746 116.793 56.6262 116.879 56.5403C116.965 56.4543 117.014 56.3377 117.014 56.2161V52.2903C117.013 52.1688 116.965 52.0524 116.879 51.9665C116.793 51.8806 116.677 51.8322 116.555 51.8318Z" fill="#E6E6E6"/>
<path d="M116.555 58.5247H112.628C112.568 58.5247 112.508 58.5366 112.453 58.5597C112.397 58.5828 112.347 58.6166 112.304 58.6592C112.262 58.7018 112.228 58.7523 112.205 58.8079C112.182 58.8635 112.171 58.9231 112.171 58.9832V62.9089C112.171 62.9691 112.182 63.0286 112.205 63.0842C112.228 63.1398 112.262 63.1903 112.304 63.2329C112.347 63.2755 112.397 63.3093 112.453 63.3324C112.508 63.3555 112.568 63.3674 112.628 63.3675H116.555C116.677 63.3674 116.793 63.3191 116.879 63.2331C116.965 63.1471 117.014 63.0305 117.014 62.9089V58.9832C117.014 58.8616 116.965 58.745 116.879 58.659C116.793 58.573 116.677 58.5247 116.555 58.5247Z" fill="white"/>
<path d="M124.802 31.7534H120.874C120.753 31.7538 120.637 31.8023 120.551 31.8882C120.465 31.9742 120.417 32.0905 120.417 32.2119V36.1394C120.418 36.2605 120.466 36.3767 120.551 36.4624C120.637 36.548 120.753 36.5961 120.874 36.5962H124.802C124.923 36.5962 125.039 36.5482 125.125 36.4625C125.211 36.3769 125.26 36.2607 125.26 36.1394V32.2119C125.26 32.0904 125.212 31.9739 125.126 31.888C125.04 31.8021 124.923 31.7537 124.802 31.7534Z" fill="#ED2590"/>
<path d="M124.802 38.4462H120.874C120.753 38.4466 120.637 38.4951 120.551 38.581C120.465 38.667 120.417 38.7834 120.417 38.9047V42.8322C120.418 42.9533 120.466 43.0695 120.551 43.1552C120.637 43.2408 120.753 43.2889 120.874 43.289H124.802C124.923 43.289 125.039 43.241 125.125 43.1553C125.211 43.0697 125.26 42.9535 125.26 42.8322V38.9047C125.26 38.7832 125.212 38.6668 125.126 38.5809C125.04 38.4949 124.923 38.4465 124.802 38.4462Z" fill="#ED2590"/>
<path d="M124.802 45.139H120.874C120.753 45.1394 120.637 45.1879 120.551 45.2739C120.465 45.3598 120.417 45.4762 120.417 45.5975V49.5233C120.417 49.5834 120.429 49.6429 120.452 49.6985C120.475 49.7541 120.508 49.8047 120.551 49.8472C120.593 49.8898 120.644 49.9236 120.699 49.9467C120.755 49.9698 120.814 49.9817 120.874 49.9818H124.802C124.923 49.9817 125.04 49.9334 125.126 49.8474C125.212 49.7615 125.26 49.6449 125.26 49.5233V45.5975C125.26 45.476 125.211 45.3596 125.126 45.2737C125.04 45.1878 124.923 45.1393 124.802 45.139Z" fill="#E6E6E6"/>
<path d="M124.802 51.8318H120.874C120.753 51.8322 120.637 51.8807 120.551 51.9667C120.465 52.0526 120.417 52.169 120.417 52.2903V56.2161C120.417 56.2762 120.429 56.3358 120.452 56.3914C120.475 56.4469 120.508 56.4975 120.551 56.5401C120.593 56.5827 120.644 56.6165 120.699 56.6396C120.755 56.6626 120.814 56.6746 120.874 56.6746H124.802C124.923 56.6746 125.04 56.6262 125.126 56.5403C125.212 56.4543 125.26 56.3377 125.26 56.2161V52.2903C125.26 52.1688 125.211 52.0524 125.126 51.9665C125.04 51.8806 124.923 51.8322 124.802 51.8318Z" fill="white"/>
<path d="M124.802 58.5247H120.874C120.814 58.5247 120.755 58.5366 120.699 58.5597C120.644 58.5828 120.593 58.6166 120.551 58.6592C120.508 58.7018 120.475 58.7523 120.452 58.8079C120.429 58.8635 120.417 58.9231 120.417 58.9832V62.9089C120.417 62.9691 120.429 63.0286 120.452 63.0842C120.475 63.1398 120.508 63.1903 120.551 63.2329C120.593 63.2755 120.644 63.3093 120.699 63.3324C120.755 63.3555 120.814 63.3674 120.874 63.3675H124.802C124.923 63.3674 125.04 63.3191 125.126 63.2331C125.212 63.1471 125.26 63.0305 125.26 62.9089V58.9832C125.26 58.8616 125.212 58.745 125.126 58.659C125.04 58.573 124.923 58.5247 124.802 58.5247Z" fill="#ED2590"/>
<path d="M133.048 31.7534H129.121C129 31.7538 128.883 31.8023 128.798 31.8882C128.712 31.9742 128.664 32.0905 128.664 32.2119V36.1394C128.664 36.2605 128.712 36.3767 128.798 36.4624C128.884 36.548 129 36.5961 129.121 36.5962H133.048C133.17 36.5962 133.286 36.5482 133.372 36.4625C133.458 36.3769 133.506 36.2607 133.507 36.1394V32.2119C133.507 32.0904 133.458 31.9739 133.372 31.888C133.286 31.8021 133.17 31.7537 133.048 31.7534Z" fill="#ED2590"/>
<path d="M133.048 38.4462H129.121C129 38.4466 128.883 38.4951 128.798 38.581C128.712 38.667 128.664 38.7834 128.664 38.9047V42.8322C128.664 42.9533 128.712 43.0695 128.798 43.1552C128.884 43.2408 129 43.2889 129.121 43.289H133.048C133.17 43.289 133.286 43.241 133.372 43.1553C133.458 43.0697 133.506 42.9535 133.507 42.8322V38.9047C133.507 38.7832 133.458 38.6668 133.372 38.5809C133.286 38.4949 133.17 38.4465 133.048 38.4462Z" fill="#ED2590"/>
<path d="M133.048 45.139H129.121C129 45.1394 128.883 45.1879 128.798 45.2739C128.712 45.3598 128.664 45.4762 128.664 45.5975V49.5233C128.664 49.5834 128.676 49.6429 128.698 49.6985C128.721 49.7541 128.755 49.8047 128.797 49.8472C128.84 49.8898 128.89 49.9236 128.946 49.9467C129.001 49.9698 129.061 49.9817 129.121 49.9818H133.048C133.17 49.9817 133.287 49.9334 133.373 49.8474C133.459 49.7615 133.507 49.6449 133.507 49.5233V45.5975C133.507 45.476 133.458 45.3596 133.372 45.2737C133.286 45.1878 133.17 45.1393 133.048 45.139Z" fill="#E6E6E6"/>
<path d="M133.048 51.8318H129.121C129 51.8322 128.883 51.8807 128.798 51.9667C128.712 52.0526 128.664 52.169 128.664 52.2903V56.2161C128.664 56.2762 128.676 56.3358 128.698 56.3914C128.721 56.4469 128.755 56.4975 128.797 56.5401C128.84 56.5827 128.89 56.6165 128.946 56.6396C129.001 56.6626 129.061 56.6746 129.121 56.6746H133.048C133.17 56.6746 133.287 56.6262 133.373 56.5403C133.459 56.4543 133.507 56.3377 133.507 56.2161V52.2903C133.507 52.1688 133.458 52.0524 133.372 51.9665C133.286 51.8806 133.17 51.8321 133.048 51.8318Z" fill="#ED2590"/>
<path d="M133.048 58.5247H129.121C129.061 58.5247 129.001 58.5366 128.946 58.5597C128.89 58.5828 128.84 58.6166 128.797 58.6592C128.755 58.7018 128.721 58.7523 128.698 58.8079C128.676 58.8635 128.664 58.9231 128.664 58.9832V62.9089C128.664 62.9691 128.676 63.0286 128.698 63.0842C128.721 63.1398 128.755 63.1903 128.797 63.2329C128.84 63.2755 128.89 63.3093 128.946 63.3324C129.001 63.3555 129.061 63.3674 129.121 63.3675H133.048C133.17 63.3674 133.287 63.3191 133.373 63.2331C133.459 63.1471 133.507 63.0305 133.507 62.9089V58.9832C133.507 58.8616 133.459 58.745 133.373 58.659C133.287 58.573 133.17 58.5247 133.048 58.5247Z" fill="#ED2590"/>
<path d="M141.295 31.7534H137.367C137.246 31.7538 137.13 31.8023 137.044 31.8882C136.959 31.9742 136.911 32.0905 136.911 32.2119V36.1394C136.911 36.2605 136.959 36.3767 137.044 36.4624C137.13 36.548 137.246 36.5961 137.367 36.5962H141.295C141.416 36.5962 141.533 36.5482 141.619 36.4625C141.705 36.3769 141.753 36.2607 141.753 36.1394V32.2119C141.753 32.0904 141.705 31.9739 141.619 31.888C141.533 31.8021 141.416 31.7537 141.295 31.7534Z" fill="#E6E6E6"/>
<path d="M141.295 38.4462H137.367C137.246 38.4466 137.13 38.4951 137.044 38.581C136.959 38.667 136.911 38.7834 136.911 38.9047V42.8322C136.911 42.9533 136.959 43.0695 137.044 43.1552C137.13 43.2408 137.246 43.2889 137.367 43.289H141.295C141.416 43.289 141.533 43.241 141.619 43.1553C141.705 43.0697 141.753 42.9535 141.753 42.8322V38.9047C141.753 38.7832 141.705 38.6668 141.619 38.5809C141.533 38.4949 141.416 38.4465 141.295 38.4462Z" fill="#ED2590"/>
<path d="M141.295 45.139H137.367C137.246 45.1394 137.13 45.1879 137.044 45.2739C136.959 45.3598 136.911 45.4762 136.911 45.5975V49.5233C136.91 49.5834 136.922 49.6429 136.945 49.6985C136.968 49.7541 137.002 49.8047 137.044 49.8472C137.086 49.8898 137.137 49.9236 137.192 49.9467C137.248 49.9698 137.307 49.9817 137.367 49.9818H141.295C141.417 49.9817 141.533 49.9334 141.619 49.8474C141.705 49.7615 141.753 49.6449 141.753 49.5233V45.5975C141.753 45.476 141.705 45.3596 141.619 45.2737C141.533 45.1878 141.416 45.1393 141.295 45.139Z" fill="#ED2590"/>
<path d="M141.295 51.8318H137.367C137.246 51.8322 137.13 51.8807 137.044 51.9667C136.959 52.0526 136.911 52.169 136.911 52.2903V56.2161C136.91 56.2762 136.922 56.3358 136.945 56.3914C136.968 56.4469 137.002 56.4975 137.044 56.5401C137.086 56.5827 137.137 56.6165 137.192 56.6396C137.248 56.6626 137.307 56.6746 137.367 56.6746H141.295C141.417 56.6746 141.533 56.6262 141.619 56.5403C141.705 56.4543 141.753 56.3377 141.753 56.2161V52.2903C141.753 52.1688 141.705 52.0524 141.619 51.9665C141.533 51.8806 141.416 51.8321 141.295 51.8318Z" fill="#ED2590"/>
<path d="M141.295 58.5247H137.367C137.307 58.5247 137.248 58.5366 137.192 58.5597C137.137 58.5828 137.086 58.6166 137.044 58.6592C137.002 58.7018 136.968 58.7523 136.945 58.8079C136.922 58.8635 136.91 58.9231 136.911 58.9832V62.9089C136.91 62.9691 136.922 63.0286 136.945 63.0842C136.968 63.1398 137.002 63.1903 137.044 63.2329C137.086 63.2755 137.137 63.3093 137.192 63.3324C137.248 63.3555 137.307 63.3674 137.367 63.3675H141.295C141.417 63.3674 141.533 63.3191 141.619 63.2331C141.705 63.1471 141.753 63.0305 141.753 62.9089V58.9832C141.753 58.8616 141.705 58.745 141.619 58.659C141.533 58.573 141.417 58.5247 141.295 58.5247Z" fill="#E6E6E6"/>
<path d="M149.542 31.7534H145.614C145.493 31.7538 145.376 31.8023 145.291 31.8882C145.205 31.9742 145.157 32.0905 145.157 32.2119V36.1394C145.157 36.2605 145.205 36.3767 145.291 36.4624C145.377 36.548 145.493 36.5961 145.614 36.5962H149.542C149.663 36.5962 149.779 36.5482 149.865 36.4625C149.951 36.3769 150 36.2607 150 36.1394V32.2119C150 32.0904 149.951 31.9739 149.865 31.888C149.779 31.8021 149.663 31.7537 149.542 31.7534Z" fill="#E6E6E6"/>
<path d="M149.542 38.4462H145.614C145.493 38.4466 145.376 38.4951 145.291 38.581C145.205 38.667 145.157 38.7834 145.157 38.9047V42.8322C145.157 42.9533 145.205 43.0695 145.291 43.1552C145.377 43.2408 145.493 43.2889 145.614 43.289H149.542C149.663 43.289 149.779 43.241 149.865 43.1553C149.951 43.0697 150 42.9535 150 42.8322V38.9047C150 38.7832 149.951 38.6668 149.865 38.5809C149.779 38.4949 149.663 38.4465 149.542 38.4462Z" fill="#E6E6E6"/>
<path d="M149.542 45.139H145.614C145.493 45.1394 145.376 45.1879 145.291 45.2739C145.205 45.3598 145.157 45.4762 145.157 45.5975V49.5233C145.157 49.5834 145.169 49.6429 145.192 49.6985C145.215 49.7541 145.248 49.8047 145.291 49.8472C145.333 49.8898 145.383 49.9236 145.439 49.9467C145.494 49.9698 145.554 49.9817 145.614 49.9818H149.542C149.663 49.9817 149.78 49.9334 149.866 49.8474C149.952 49.7615 150 49.6449 150 49.5233V45.5975C150 45.476 149.951 45.3596 149.865 45.2737C149.779 45.1878 149.663 45.1393 149.542 45.139Z" fill="#ED2590"/>
<path d="M149.542 51.8318H145.614C145.493 51.8322 145.376 51.8807 145.291 51.9667C145.205 52.0526 145.157 52.169 145.157 52.2903V56.2161C145.157 56.2762 145.169 56.3358 145.192 56.3914C145.215 56.4469 145.248 56.4975 145.291 56.5401C145.333 56.5827 145.383 56.6165 145.439 56.6396C145.494 56.6626 145.554 56.6746 145.614 56.6746H149.542C149.663 56.6746 149.78 56.6262 149.866 56.5403C149.952 56.4543 150 56.3377 150 56.2161V52.2903C150 52.1688 149.951 52.0524 149.865 51.9665C149.779 51.8806 149.663 51.8321 149.542 51.8318Z" fill="#E6E6E6"/>
<path d="M149.542 58.5247H145.614C145.554 58.5247 145.494 58.5366 145.439 58.5597C145.383 58.5828 145.333 58.6166 145.291 58.6592C145.248 58.7018 145.215 58.7523 145.192 58.8079C145.169 58.8635 145.157 58.9231 145.157 58.9832V62.9089C145.157 62.9691 145.169 63.0286 145.192 63.0842C145.215 63.1398 145.248 63.1903 145.291 63.2329C145.333 63.2755 145.383 63.3093 145.439 63.3324C145.494 63.3555 145.554 63.3674 145.614 63.3675H149.542C149.663 63.3674 149.78 63.3191 149.866 63.2331C149.952 63.1471 150 63.0305 150 62.9089V58.9832C150 58.8616 149.952 58.745 149.866 58.659C149.78 58.573 149.663 58.5247 149.542 58.5247Z" fill="#E6E6E6"/>
<path d="M59.2734 116.406H59.1641L59.2575 116.394L59.2734 116.406Z" fill="#2F2E41"/>
<path d="M49.8768 43.2176C56.5314 43.2176 61.926 37.823 61.926 31.1684C61.926 24.5139 56.5314 19.1193 49.8768 19.1193C43.2222 19.1193 37.8276 24.5139 37.8276 31.1684C37.8276 37.823 43.2222 43.2176 49.8768 43.2176Z" fill="#FFB6B6"/>
<path d="M60.4284 22.3341C60.4284 22.3341 63.5799 16.3096 56.6466 15.7619C56.6466 15.7619 50.736 10.4002 44.7114 14.7817C44.7114 14.7817 41.4253 14.7817 39.6283 18.5003C39.6283 18.5003 37.0437 17.5201 36.4758 20.1434C36.4758 20.1434 34.5846 25.6203 36.4758 30.5495C38.367 35.4787 38.9951 36.0264 38.9951 36.0264C38.9951 36.0264 35.8875 25.692 43.4517 25.1443C51.0159 24.5966 59.4804 19.8695 60.1108 25.8941C60.7412 31.9187 61.6898 33.4031 61.6898 33.4031C61.6898 33.4031 67.6771 24.7988 60.4284 22.3341Z" fill="#2F2E41"/>
<path d="M81.0457 60.8632L81.0068 61.0677L80.5712 63.3674L77.5608 79.275L77.3827 80.2115L77.0088 82.192L76.4974 84.8938L75.3634 90.8812L75.0389 92.5972L74.9172 93.2409L74.8749 93.4666L74.538 95.2426L74.4357 95.7787L73.6139 101.868L72.8961 107.175L75.2981 109.577L73.8661 111.009L72.9261 116.393L72.9278 116.406H34.5645C33.0125 115.4 31.4829 114.364 29.9756 113.296L30.2913 110.933C30.2913 110.933 31.3777 106.713 30.9209 106.209C30.4659 105.704 29.4677 104.803 29.4677 104.803L30.7251 101.868L30.8997 101.461L30.607 95.3889L30.5999 95.2426L30.5029 93.2409L30.4906 92.9834L30.4712 92.5972L30.0991 84.8938L30.092 84.7668L29.9792 82.4318L29.8733 80.2115L29.8275 79.275L29.3742 69.9051L29.0674 63.542L28.7993 58.0026L29.8769 57.6376L41.4019 53.7206L46.176 47.5145L56.112 47.5886L60.976 47.6256L69.0921 55.1526L70.9386 56.0344L70.9527 56.0415L72.2771 56.6746L75.635 58.2777L79.1851 59.9743L81.0069 60.8437L81.0457 60.8632Z" fill="#CACACA"/>
<path d="M47.4596 98.3291C46.7315 98.6112 45.9504 98.7302 45.1713 98.6777C44.3923 98.6253 43.6341 98.4026 42.9504 98.0255C42.2667 97.6483 41.674 97.1259 41.214 96.4949C40.754 95.8639 40.438 95.1397 40.2882 94.3734L21.4956 91.7072L28.0284 84.3174L44.8726 87.9822C46.1767 87.8158 47.4965 88.1336 48.582 88.8753C49.6674 89.6171 50.4431 90.7312 50.762 92.0066C51.0808 93.282 50.9208 94.63 50.3122 95.7953C49.7035 96.9606 48.6886 97.8622 47.4596 98.3291V98.3291Z" fill="#FFB6B6"/>
<path d="M39.0806 84.8938C38.7325 84.4525 38.2397 84.1483 37.6891 84.035L29.9787 82.4318L29.1869 82.2678C28.7267 82.1718 28.292 81.9797 27.9112 81.704C27.5303 81.4284 27.212 81.0754 26.9771 80.6682C26.7333 80.2408 26.5859 79.7654 26.545 79.275C26.5082 78.8292 26.5616 78.3806 26.7019 77.9559L29.3738 69.9051L31.1074 64.6813C31.3175 64.0513 31.4415 63.3958 31.476 62.7326C31.5726 60.8972 31.0047 59.0884 29.8764 57.6376C28.8844 56.3623 27.5086 55.44 25.9522 55.0068C24.3957 54.5737 22.7412 54.6526 21.2331 55.232C21.189 55.2479 21.1431 55.2655 21.099 55.2832C20.0175 55.715 19.0512 56.3925 18.2765 57.2621C17.5018 58.1316 16.94 59.1695 16.6354 60.2935L14.7519 67.1451L10.8667 81.2697C10.4777 82.6848 10.3992 84.1673 10.6363 85.6156C10.8735 87.064 11.4208 88.444 12.2407 89.6612C13.0607 90.8784 14.134 91.9041 15.3871 92.668C16.6402 93.432 18.0436 93.9161 19.5012 94.0874L30.6065 95.3889L35.7456 95.9921C36.3399 96.0635 36.9392 95.9084 37.4243 95.5577C37.9093 95.207 38.2444 94.6865 38.3628 94.0998C38.3711 94.0678 38.3776 94.0354 38.3822 94.0028L38.5056 93.2409L39.5515 86.825L39.562 86.7597C39.6165 86.4323 39.6018 86.0971 39.5189 85.7758C39.436 85.4544 39.2867 85.154 39.0806 84.8938Z" fill="#CACACA"/>
<path d="M59.4299 98.5347C60.1906 98.7113 60.9806 98.719 61.7445 98.5572C62.5084 98.3954 63.2276 98.0681 63.8513 97.5983C64.475 97.1285 64.9881 96.5277 65.3545 95.8381C65.7209 95.1486 65.9316 94.3871 65.9719 93.6073L84.2007 88.3176L76.6911 81.9229L60.532 87.9264C59.2174 87.9456 57.9556 88.4463 56.9856 89.3337C56.0156 90.2211 55.4048 91.4335 55.269 92.7411C55.1331 94.0487 55.4817 95.3608 56.2486 96.4286C57.0155 97.4964 58.1474 98.2458 59.4299 98.5348V98.5347Z" fill="#FFB6B6"/>
<path d="M93.2513 76.4851L84.5815 56.5318C83.8724 54.8937 82.6059 53.5597 81.0067 52.7665C80.5124 52.5232 79.9932 52.334 79.4583 52.2022C79.3754 52.181 79.2925 52.1616 79.2096 52.1457C78.0752 51.8982 76.8986 51.92 75.7741 52.2093C74.7463 52.4733 73.7856 52.9511 72.9548 53.6114C72.124 54.2717 71.4417 55.0998 70.9525 56.0415C70.9471 56.0494 70.9424 56.0576 70.9384 56.0662C70.3919 57.1234 70.1013 58.2942 70.0899 59.4842C70.0786 60.6743 70.3468 61.8503 70.8731 62.9178L70.9807 63.1329L77.1074 75.4375C77.3166 75.8582 77.4345 76.3185 77.4533 76.788C77.4721 77.2575 77.3915 77.7257 77.2166 78.1619C77.0417 78.598 76.7766 78.9923 76.4387 79.3188C76.1007 79.6453 75.6976 79.8966 75.2556 80.0563L74.8253 80.2115L67.0867 83.0068C66.506 83.214 66.0284 83.6385 65.7544 84.1908C65.4803 84.7431 65.4313 85.3801 65.6176 85.9679L65.637 86.0296L67.8062 92.9711C67.8168 93.0028 67.8274 93.0346 67.8397 93.0663C67.8588 93.1262 67.8824 93.1846 67.9103 93.2409C68.1408 93.758 68.5483 94.1758 69.0594 94.4192C69.5705 94.6627 70.1517 94.7157 70.6985 94.5689L74.8747 93.4667L75.7265 93.2409L86.5108 90.3927C87.9298 90.0178 89.2511 89.3406 90.384 88.4075C91.517 87.4745 92.435 86.3077 93.0751 84.9869C93.7152 83.6661 94.0624 82.2226 94.0928 80.7552C94.1232 79.2878 93.8361 77.8312 93.2513 76.485L93.2513 76.4851Z" fill="#CACACA"/>
<path d="M7.91797 93.2409C10.4171 96.2891 13.1122 99.171 15.9864 101.868H95.6954C96.4633 101.87 97.1994 102.175 97.7423 102.719C98.2851 103.262 98.5904 103.998 98.5912 104.766L98.7058 124.964C103.609 122.711 108.202 119.835 112.368 116.406C113.525 115.455 114.646 114.463 115.731 113.43C116.442 112.757 117.136 112.067 117.813 111.36C122.885 106.075 126.993 99.9431 129.95 93.2409H7.91797Z" fill="#3F3D56"/>
<path d="M117.813 111.36C117.137 112.067 116.444 112.757 115.732 113.43H98.7642V111.36H117.813Z" fill="white"/>
<path d="M80.8868 45.139C80.803 44.9843 80.679 44.8551 80.5278 44.7651C80.3766 44.675 80.2039 44.6275 80.0279 44.6276H22.2104C21.9512 44.6282 21.7028 44.7316 21.5197 44.9151C21.3366 45.0986 21.2336 45.3471 21.2334 45.6063V80.2115H81.0067V45.6063C81.0076 45.4428 80.9664 45.2819 80.8868 45.139Z" fill="#3F3D56"/>
<path d="M21.1812 79.2746V83.5449C21.1812 83.7219 21.216 83.8972 21.2838 84.0608C21.3515 84.2243 21.4508 84.373 21.576 84.4981C21.7012 84.6233 21.8498 84.7226 22.0133 84.7904C22.1769 84.8581 22.3522 84.893 22.5292 84.893H44.5911V93.3205H44.2981C44.2751 93.3205 44.2523 93.3251 44.231 93.3339C44.2098 93.3427 44.1905 93.3556 44.1742 93.3718C44.158 93.3881 44.1451 93.4074 44.1363 93.4286C44.1275 93.4499 44.1229 93.4727 44.1229 93.4957V94.0818C44.1229 94.1048 44.1275 94.1276 44.1363 94.1489C44.1451 94.1701 44.158 94.1894 44.1742 94.2057C44.1905 94.2219 44.2098 94.2348 44.231 94.2436C44.2523 94.2524 44.2751 94.257 44.2981 94.257H57.9938C58.0168 94.257 58.0396 94.2524 58.0608 94.2436C58.0821 94.2348 58.1014 94.2219 58.1176 94.2057C58.1339 94.1894 58.1468 94.1701 58.1556 94.1489C58.1644 94.1276 58.1689 94.1048 58.1689 94.0818V93.4957C58.1689 93.4727 58.1644 93.4499 58.1556 93.4286C58.1468 93.4074 58.1339 93.3881 58.1176 93.3718C58.1014 93.3556 58.0821 93.3427 58.0608 93.3339C58.0396 93.3251 58.0168 93.3205 57.9938 93.3205H57.7007V84.893H79.7627C79.9397 84.893 80.115 84.8581 80.2785 84.7904C80.4421 84.7226 80.5907 84.6233 80.7159 84.4981C80.8411 84.373 80.9403 84.2243 81.0081 84.0608C81.0758 83.8972 81.1107 83.7219 81.1107 83.5449V79.2746H21.1812Z" fill="#3F3D56"/>
<path d="M64.4891 30.51H63.6073C63.6073 23.8437 57.0097 19.4753 50.3539 19.4717C49.3858 19.4689 48.4198 19.5628 47.4704 19.7521C46.4017 19.9655 45.2924 20.2213 44.2025 20.5546C39.9046 21.872 35.9189 24.4186 35.9189 30.51C35.918 31.693 36.0685 32.8713 36.3669 34.0161L35.5133 34.2383C35.1967 33.0208 35.0367 31.768 35.0371 30.51C35.0371 25.1875 37.2222 21.5316 40.9963 19.3518C42.9803 18.2055 45.4017 17.4665 48.1759 17.1068C49.3303 16.9532 50.4973 16.9177 51.6589 17.0009C59.3129 17.5512 64.4891 23.4204 64.4891 30.51Z" fill="#ED2590"/>
<path d="M65.9578 30.9985L65.6104 28.4308C65.5247 27.7823 65.2123 27.1851 64.7286 26.7448C64.418 26.4577 64.0463 26.2451 63.6414 26.1229C63.2366 26.0007 62.8093 25.9721 62.3918 26.0393L61.8398 26.1152C61.6888 26.1351 61.5432 26.1847 61.4115 26.2613C61.2798 26.3379 61.1646 26.4399 61.0726 26.5614C60.9799 26.6824 60.912 26.8206 60.873 26.968C60.8339 27.1155 60.8245 27.2691 60.8451 27.4202L61.6476 33.3353C61.6806 33.5764 61.7887 33.801 61.9564 33.9773C62.1242 34.1536 62.3431 34.2726 62.5823 34.3176C62.6531 34.3318 62.7252 34.3389 62.7974 34.3388C62.8493 34.3388 62.9012 34.3352 62.9526 34.3282L63.5699 34.2453C63.9462 34.1954 64.3084 34.069 64.6341 33.874C64.9598 33.679 65.2422 33.4195 65.464 33.1113C65.5116 33.0443 65.5574 32.9755 65.5998 32.905C65.9303 32.3279 66.0565 31.6562 65.9578 30.9985Z" fill="#ED2590"/>
<path d="M61.4835 26.2227C61.3216 26.3014 61.1808 26.4175 61.0726 26.5613C60.9799 26.6824 60.912 26.8206 60.873 26.968C60.8339 27.1154 60.8245 27.2691 60.8451 27.4202L61.6476 33.3353C61.6806 33.5764 61.7887 33.8009 61.9564 33.9772C62.1242 34.1535 62.3431 34.2726 62.5823 34.3176L61.4835 26.2227Z" fill="white"/>
<path d="M65.9578 30.9985L65.6103 28.4307C65.5246 27.7823 65.2123 27.185 64.7285 26.7448L65.5274 32.6299C65.5394 32.7243 65.5637 32.8168 65.5997 32.905C65.9303 32.3279 66.0564 31.6562 65.9578 30.9985Z" fill="#3F3D56"/>
<path d="M63.2121 32.8486C63.4534 32.8159 63.5747 32.2417 63.4831 31.5661C63.3914 30.8905 63.1215 30.3693 62.8802 30.402C62.639 30.4348 62.5177 31.009 62.6093 31.6846C62.701 32.3602 62.9709 32.8814 63.2121 32.8486Z" fill="#3F3D56"/>
<path d="M62.6829 29.6742C62.9242 29.6415 63.0455 29.0673 62.9538 28.3916C62.8622 27.716 62.5923 27.1949 62.351 27.2276C62.1097 27.2603 61.9884 27.8346 62.08 28.5102C62.1717 29.1858 62.4416 29.7069 62.6829 29.6742Z" fill="#3F3D56"/>
<path d="M66.0339 30.9087C66.2752 30.876 66.3965 30.3018 66.3049 29.6261C66.2132 28.9505 65.9433 28.4294 65.702 28.4621C65.4607 28.4948 65.3394 29.0691 65.4311 29.7447C65.5227 30.4203 65.7926 30.9414 66.0339 30.9087Z" fill="#3F3D56"/>
<path d="M50.3537 19.4717C49.3856 19.4689 48.4197 19.5628 47.4702 19.7521C46.4015 19.9655 45.2922 20.2213 44.2023 20.5546C42.5004 20.4717 41.2483 20.0308 40.9961 19.3518C42.9801 18.2055 45.4015 17.4665 48.1757 17.1068C49.3301 16.9532 50.4972 16.9177 51.6588 17.0009C51.7817 17.073 51.8881 17.1703 51.9707 17.2864C52.0534 17.4026 52.1106 17.5348 52.1385 17.6746C52.2214 18.2884 51.5212 18.9409 50.3537 19.4717Z" fill="#3F3D56"/>
<path d="M39.095 36.6297L37.737 30.9845C37.6886 30.7808 37.5811 30.596 37.4279 30.4532C37.2748 30.3104 37.0829 30.2161 36.8764 30.182C36.818 30.1729 36.7591 30.1682 36.7 30.1679C36.6168 30.1682 36.534 30.1783 36.4531 30.1979L35.9276 30.3249C35.2509 30.4885 34.6668 30.9139 34.3034 31.5077C33.9401 32.1016 33.8271 32.8153 33.9894 33.4923L34.5978 36.0248C34.7367 36.621 35.0676 37.1551 35.5396 37.545C35.6161 37.6068 35.6962 37.6639 35.7794 37.7161C36.075 37.9014 36.4048 38.0255 36.7492 38.0813C37.0936 38.137 37.4457 38.1232 37.7846 38.0406L38.3084 37.9136C38.4469 37.8813 38.5772 37.8206 38.6911 37.7355C38.8605 37.612 38.9893 37.4409 39.0612 37.244C39.1331 37.0471 39.1449 36.8333 39.095 36.6297Z" fill="#ED2590"/>
<path d="M36.248 35.5793C36.4848 35.5224 36.5474 34.9388 36.3879 34.2759C36.2283 33.613 35.9071 33.1219 35.6704 33.1788C35.4336 33.2358 35.371 33.8194 35.5305 34.4822C35.69 35.1451 36.0113 35.6363 36.248 35.5793Z" fill="#3F3D56"/>
<path d="M34.4844 36.1084C34.7211 36.0514 34.7837 35.4679 34.6242 34.805C34.4647 34.1421 34.1434 33.6509 33.9067 33.7079C33.6699 33.7649 33.6073 34.3484 33.7669 35.0113C33.9264 35.6742 34.2476 36.1654 34.4844 36.1084Z" fill="#3F3D56"/>
<path d="M39.1815 36.6085L37.8236 30.9633C37.7707 30.7429 37.6539 30.543 37.488 30.3887C37.322 30.2344 37.1142 30.1324 36.8906 30.0956L38.7442 37.806C38.9272 37.6719 39.0664 37.4867 39.1443 37.2735C39.2221 37.0604 39.2351 36.829 39.1815 36.6085Z" fill="white"/>
<path d="M34.2962 32.3742C34.2587 32.2172 34.1884 32.0699 34.0899 31.9421C33.899 32.4364 33.8639 32.9774 33.9893 33.4923L34.5978 36.0248C34.7367 36.621 35.0676 37.1551 35.5395 37.545L34.2962 32.3742Z" fill="#3F3D56"/>
</g>
<defs>
<clipPath id="clip0_19906_300">
<rect width="150" height="130.652" fill="white"/>
</clipPath>
</defs>
</svg>
